PathFileType	4	(X/Y/Z)	/Users/itak/Documents/Research/Walk-IL/dataset/trc/00286_00010.trc
DataRate	CameraRate	NumFrames	NumMarkers	Units	OrigDataRate	OrigDataStartFrame	OrigNumFrames
100.000000	100.000000	4	54	mm	100.000000	243	648
Frame#	Time	RPSI			LPSI			L3			STRN			T10			C7			CLAV			RBAK			LBAK			LSHO			LUPA			LAEL			LAOL			LWTS			LWPS			LFRA			LIFD			LHPS			LHTS			RSHO			RUPA			RAEL			RAOL			RWTS			RWPS			RFRA			RIFD			RHTS			RHPS			RBHD			LFHD			RFHD			LBHD			LHIP			RASI			LASI			LKNE			LTHI			LANK			LTIP			LTOE			LMT1			LMT5			LHEE			RKNE			RANK			RTIP			RTOE			RMT1			RMT5			RHEE			RHIP			RTHI			*53			
		X1	Y1	Z1	X2	Y2	Z2	X3	Y3	Z3	X4	Y4	Z4	X5	Y5	Z5	X6	Y6	Z6	X7	Y7	Z7	X8	Y8	Z8	X9	Y9	Z9	X10	Y10	Z10	X11	Y11	Z11	X12	Y12	Z12	X13	Y13	Z13	X14	Y14	Z14	X15	Y15	Z15	X16	Y16	Z16	X17	Y17	Z17	X18	Y18	Z18	X19	Y19	Z19	X20	Y20	Z20	X21	Y21	Z21	X22	Y22	Z22	X23	Y23	Z23	X24	Y24	Z24	X25	Y25	Z25	X26	Y26	Z26	X27	Y27	Z27	X28	Y28	Z28	X29	Y29	Z29	X30	Y30	Z30	X31	Y31	Z31	X32	Y32	Z32	X33	Y33	Z33	X34	Y34	Z34	X35	Y35	Z35	X36	Y36	Z36	X37	Y37	Z37	X38	Y38	Z38	X39	Y39	Z39	X40	Y40	Z40	X41	Y41	Z41	X42	Y42	Z42	X43	Y43	Z43	X44	Y44	Z44	X45	Y45	Z45	X46	Y46	Z46	X47	Y47	Z47	X48	Y48	Z48	X49	Y49	Z49	X50	Y50	Z50	X51	Y51	Z51	X52	Y52	Z52	X53	Y53	Z53	X54	Y54	Z54	

244	2.43	1300.094604492188	960.4098510742188	439.2745971679688	1127.873413085938	947.9088134765625	408.3177795410156	1227.069213867188	1021.878967285156	411.3710327148438	1224.413940429688	1200.390014648438	170.616455078125	1230.566284179688	1134.546264648438	434.2721252441406	1198.607299804688	1378.250854492188	398.3377685546875	1209.993408203125	1297.960571289062	236.9795989990234	1286.529541015625	1248.048950195312	446.9538879394531	1098.9189453125	1331.333862304688	415.3741760253906	1043.82861328125	1334.515747070312	324.2611389160156	981.0392456054688	1218.311889648438	368.7677917480469	979.2406616210938	1023.422668457031	404.1134338378906	1057.21630859375	1013.669372558594	439.3688049316406	986.7972412109375	783.4340209960938	368.7158813476562	949.6427612304688	785.8878173828125	429.6336975097656	965.74072265625	919.8240356445312	418.5272216796875	1012.423645019531	605.8504638671875	424.1229553222656	959.8822631835938	699.948486328125	451.2861633300781	972.71630859375	682.2329711914062	388.0402221679688	1356.188232421875	1371.478149414062	327.5841979980469	1427.249633789062	1316.678833007812	327.9225158691406	1505.237670898438	1058.292724609375	290.0092163085938	1417.970336914062	1032.277709960938	313.0990905761719	1453.205932617188	953.0765991210938	71.33162689208984	1524.355712890625	916.1149291992188	98.87374877929688	1518.403686523438	1015.821838378906	233.2232360839844	1445.971557617188	831.1984252929688	-66.25867462158203	1469.90625	895.2257690429688	-32.92073059082031	1517.627319335938	855.4846801757812	1.285344839096069	1255.541748046875	1553.443359375	348.1847839355469	1108.596069335938	1548.843139648438	195.04052734375	1199.5478515625	1561.606323242188	181.8063507080078	1113.805541992188	1525.321166992188	370.09619140625	1045.813842773438	901.3930053710938	319.9939270019531	1371.951538085938	906.7074584960938	231.2203826904297	1123.167236328125	910.16796875	195.8211975097656	1156.2197265625	470.1044616699219	116.4638519287109	1102.135986328125	598.1024169921875	167.9810333251953	1234.88427734375	36.77567672729492	152.7620544433594	1188.504150390625	235.5976867675781	122.4336929321289	1318.905395507812	22.92070198059082	-49.64156723022461	1346.728759765625	13.63271236419678	28.45876502990723	1237.944458007812	32.05096817016602	27.39558219909668	1289.161376953125	24.96065711975098	202.7124328613281	1416.654663085938	441.1903076171875	412.9493103027344	1352.894165039062	167.7369079589844	772.6600341796875	1404.0498046875	342.2022094726562	487.2249145507812	1303.333374023438	26.23247909545898	669.6145629882812	1263.436767578125	65.81486511230469	688.8889770507812	1370.0625	67.07656097412109	740.81884765625	1302.550903320312	216.4033813476562	787.8475952148438	1420.5400390625	905.947265625	362.3596801757812	1430.093383789062	692.6488037109375	336.6430358886719	nan	nan	nan	
245	2.44	1300.54443359375	960.0288696289062	429.6719665527344	1128.163208007812	948.903076171875	399.0530090332031	1227.72509765625	1023.646057128906	401.571044921875	1223.433715820312	1201.777954101562	160.5066833496094	1232.015258789062	1136.283325195312	424.174560546875	1199.751342773438	1379.705810546875	388.3824157714844	1209.608642578125	1299.56396484375	226.9597320556641	1288.421875	1249.768798828125	435.99365234375	1100.487670898438	1332.66015625	406.6715698242188	1044.477172851562	1335.58740234375	316.0863037109375	982.3924560546875	1218.981079101562	360.6572570800781	981.4575805664062	1023.679565429688	394.6628112792969	1059.639892578125	1014.182006835938	429.6512145996094	988.9154052734375	784.5713500976562	355.551513671875	952.1861572265625	785.6986083984375	416.7697143554688	967.9737548828125	919.9478759765625	407.6904907226562	1016.623718261719	606.4187622070312	407.4715881347656	963.1483154296875	699.1994018554688	436.6095886230469	975.7391357421875	682.9425048828125	373.188720703125	1356.668090820312	1373.494018554688	315.934326171875	1427.79931640625	1318.816650390625	315.3704833984375	1504.508178710938	1059.8857421875	279.2724914550781	1417.49169921875	1034.548217773438	303.982177734375	1450.384521484375	947.6170043945312	64.39216613769531	1521.82568359375	911.6612548828125	92.57113647460938	1517.026489257812	1015.664855957031	223.454833984375	1441.543334960938	820.30126953125	-68.02284240722656	1465.785888671875	885.6624755859375	-37.64008712768555	1514.0361328125	847.3593139648438	-2.544010400772095	1255.700439453125	1555.025512695312	337.9208068847656	1106.634521484375	1550.131469726562	186.8673248291016	1197.333618164062	1563.405029296875	172.3485260009766	1114.480102539062	1526.128295898438	361.7550659179688	1045.443725585938	902.84423828125	311.0532531738281	1371.331665039062	908.0026245117188	220.5426788330078	1122.409790039062	911.67138671875	186.7245788574219	1156.005615234375	469.2330932617188	112.0200653076172	1101.94384765625	597.4452514648438	162.5159301757812	1235.191284179688	36.89777755737305	152.7281646728516	1188.81103515625	235.1469116210938	120.495849609375	1319.173950195312	22.77723693847656	-49.64393615722656	1346.902587890625	13.62945365905762	28.51530456542969	1238.098266601562	32.24641418457031	27.45627021789551	1289.498779296875	24.97945213317871	202.6668548583984	1421.467529296875	439.5924987792969	387.7402954101562	1361.37158203125	177.0187530517578	754.276123046875	1408.848022460938	341.6392822265625	462.7554931640625	1305.210815429688	25.20333290100098	663.0310668945312	1267.658325195312	70.67610931396484	679.423583984375	1374.908325195312	73.63465118408203	729.0416259765625	1312.111206054688	227.1314849853516	767.7744140625	1420.142944335938	905.8612060546875	351.4777221679688	1431.201049804688	693.1276245117188	320.6888122558594	nan	nan	nan	
246	2.45	1300.850830078125	959.664306640625	420.4234924316406	1128.33447265625	950.0204467773438	390.0264587402344	1228.169067382812	1025.42724609375	392.0065307617188	1222.690307617188	1203.004638671875	150.6938171386719	1233.169677734375	1138.02587890625	414.2827453613281	1200.800415039062	1381.200317382812	378.5679321289062	1209.34130859375	1301.064819335938	217.0894317626953	1289.994384765625	1251.466430664062	425.3236999511719	1101.849731445312	1334.042236328125	397.9040832519531	1045.090454101562	1336.611450195312	307.795166015625	983.6189575195312	1219.604858398438	352.3743896484375	983.5198364257812	1023.930847167969	385.1412658691406	1061.802368164062	1014.716857910156	420.0469665527344	990.756103515625	785.8536987304688	342.2475891113281	954.5145874023438	785.5699462890625	403.8104553222656	970.0421142578125	920.0567626953125	396.8463439941406	1019.63525390625	606.9180297851562	389.9156799316406	966.0059814453125	698.5467529296875	421.6346740722656	978.0143432617188	683.8839111328125	357.8948669433594	1357.126098632812	1375.362182617188	304.6509094238281	1428.278686523438	1320.732788085938	303.2895812988281	1503.98828125	1061.453735351562	268.3568420410156	1417.366943359375	1036.647827148438	294.9214782714844	1447.635375976562	941.7211303710938	57.9046516418457	1519.570922851562	907.0956420898438	86.51308441162109	1515.845825195312	1015.450256347656	213.5541229248047	1437.28369140625	808.8269653320312	-68.76163482666016	1461.673095703125	875.5574951171875	-41.61076354980469	1510.695068359375	838.9730224609375	-5.796510696411133	1255.864501953125	1556.634887695312	327.6922607421875	1104.689697265625	1551.345092773438	178.7660675048828	1195.111083984375	1565.11669921875	162.9535369873047	1115.173950195312	1526.9814453125	353.4741821289062	1045.064208984375	904.3828125	302.2517700195312	1370.8837890625	909.1847534179688	210.2598266601562	1121.839721679688	913.1007080078125	177.9096069335938	1155.728515625	468.3558349609375	108.1511917114258	1101.7265625	596.7830810546875	157.5575256347656	1235.453979492188	36.95648956298828	152.7400054931641	1188.994140625	234.6865539550781	119.0652770996094	1319.376586914062	22.77700042724609	-49.62128067016602	1347.034912109375	13.67656898498535	28.54944610595703	1238.219360351562	32.42736434936523	27.53421592712402	1289.829467773438	24.97953033447266	202.6546478271484	1425.789184570312	438.5248718261719	362.1690673828125	1370.090942382812	185.6618804931641	734.2845458984375	1413.333129882812	341.4453430175781	437.5320434570312	1307.40087890625	24.78217124938965	654.3018188476562	1272.362426757812	75.93123626708984	667.7191162109375	1380.28125	80.20410919189453	714.890380859375	1321.818115234375	236.9561309814453	746.5433959960938	1419.628295898438	905.73046875	341.0917358398438	1432.252807617188	693.8714599609375	305.0238037109375	nan	nan	nan	
247	2.46	1301.157958984375	959.4034423828125	411.3950805664062	1128.501708984375	951.2845458984375	381.2735595703125	1228.499267578125	1027.199829101562	382.6670532226562	1222.173706054688	1204.1064453125	141.1550598144531	1234.095825195312	1139.770751953125	404.618408203125	1201.757080078125	1382.734375	368.9053039550781	1209.18359375	1302.45068359375	207.3873901367188	1291.279174804688	1253.149291992188	414.9531555175781	1103.023193359375	1335.493530273438	389.1096801757812	1045.673095703125	1337.616577148438	299.4185485839844	984.6951293945312	1220.215698242188	343.9227600097656	985.38427734375	1024.21435546875	375.5137329101562	1063.64697265625	1015.288757324219	410.5412292480469	992.3690795898438	787.2703247070312	328.8268432617188	956.6123046875	785.5289306640625	390.7324523925781	971.9212036132812	920.1622314453125	385.9433898925781	1021.468933105469	607.3663330078125	371.5986938476562	968.4103393554688	698.0255126953125	406.3685607910156	979.5865478515625	685.0664672851562	342.2191162109375	1357.560180664062	1377.086547851562	293.7160034179688	1428.694580078125	1322.437377929688	291.6768798828125	1503.634643554688	1062.966552734375	257.3025512695312	1417.547607421875	1038.5673828125	285.9271240234375	1444.982788085938	935.4476928710938	51.9306755065918	1517.616821289062	902.477783203125	80.70467376708984	1514.835205078125	1015.175354003906	203.5597229003906	1433.256958007812	796.95703125	-68.44821929931641	1457.603637695312	865.0408935546875	-44.77030563354492	1507.6376953125	830.4381713867188	-8.48045539855957	1256.021484375	1558.25244140625	317.5153503417969	1102.783569335938	1552.492797851562	170.7211761474609	1192.9072265625	1566.726318359375	153.6261596679688	1115.862915039062	1527.891845703125	345.2434387207031	1044.698974609375	906.009033203125	293.6965637207031	1370.526611328125	910.2564697265625	200.2396545410156	1121.353149414062	914.5071411132812	169.3970489501953	1155.386962890625	467.5733032226562	104.6841278076172	1101.465942382812	596.2833251953125	152.87255859375	1235.657470703125	36.96841430664062	152.7738037109375	1189.03955078125	234.2530822753906	118.0035400390625	1319.51953125	22.85119247436523	-49.58433151245117	1347.130249023438	13.7440299987793	28.56867408752441	1238.303833007812	32.56954193115234	27.61172103881836	1290.1142578125	24.97623825073242	202.6666870117188	1429.526489257812	438.0762939453125	336.385009765625	1378.970947265625	193.4397430419922	712.83154296875	1417.483520507812	341.7278747558594	411.7341918945312	1310.0615234375	25.36408233642578	642.8346557617188	1277.519775390625	81.46556854248047	653.5551147460938	1386.198486328125	86.51934051513672	698.1370849609375	1331.6181640625	245.6981964111328	724.3905029296875	1419.104736328125	905.5949096679688	331.0136108398438	1433.224975585938	694.8794555664062	289.5795288085938	nan	nan	nan	
